# xmcd
#
# Track frame offsets: 
#        187
#        19870
#        39487
#        62457
#        86777
#        107127
#        129635
#        148232
#        168845
#        188692
#        212400
#        230722
#
# Disc length: 3453 seconds
#
# Revision: 18
# Processed by: cddbd v1.5.2PL0 Copyright (c) Steve Scherf et al.
# Submitted via: ExactAudioCopy v1.3
#
DISCID=a40d7b0c
DTITLE=ZARD - TODAY IS ANOTHER DAY
DYEAR=1996
DGENRE=JPop
TTITLE0=マイ フレンド
TTITLE1=君がいたから
TTITLE2=サヨナラは今もこの胸に居ます
TTITLE3=LOVE 〜眠れずに君の横顔ずっと見ていた〜
TTITLE4=DAN DAN 心魅かれてく
TTITLE5=眠り
TTITLE6=心を開いて
TTITLE7=突然
TTITLE8=今日も
TTITLE9=Today is another day
TTITLE10=愛が見えない
TTITLE11=見つめていたいね
EXTD=YEAR: 1996
EXTT0=
EXTT1=
EXTT2=
EXTT3=
EXTT4=
EXTT5=
EXTT6=
EXTT7=
EXTT8=
EXTT9=
EXTT10=
EXTT11=
PLAYORDER=
